<svg xmlns="http://www.w3.org/2000/svg" xmlns:xlink="http://www.w3.org/1999/xlink" width="1080" zoomAndPan="magnify" viewBox="0 0 810 809.999993" height="1080" preserveAspectRatio="xMidYMid meet" version="1.0"><path fill="#ffffff" d="M 615.714844 210.617188 C 615.714844 214.066406 615.628906 217.511719 615.460938 220.953125 C 615.292969 224.398438 615.039062 227.835938 614.699219 231.265625 C 614.363281 234.695312 613.941406 238.117188 613.433594 241.527344 C 612.929688 244.9375 612.339844 248.332031 611.667969 251.714844 C 610.992188 255.09375 610.238281 258.457031 609.402344 261.800781 C 608.5625 265.144531 607.644531 268.46875 606.644531 271.765625 C 605.644531 275.066406 604.5625 278.335938 603.402344 281.582031 C 602.238281 284.828125 601 288.042969 599.679688 291.230469 C 598.359375 294.414062 596.964844 297.566406 595.488281 300.683594 C 594.015625 303.796875 592.464844 306.875 590.839844 309.917969 C 589.214844 312.957031 587.515625 315.957031 585.746094 318.914062 C 583.972656 321.871094 582.128906 324.78125 580.214844 327.648438 C 578.296875 330.515625 576.3125 333.332031 574.261719 336.101562 C 572.207031 338.871094 570.085938 341.585938 567.898438 344.25 C 565.710938 346.917969 563.460938 349.527344 561.144531 352.082031 C 558.832031 354.632812 556.453125 357.128906 554.015625 359.566406 C 551.578125 362.007812 549.082031 364.382812 546.527344 366.699219 C 543.976562 369.011719 541.367188 371.265625 538.699219 373.449219 C 536.035156 375.636719 533.320312 377.757812 530.550781 379.8125 C 527.78125 381.863281 524.964844 383.847656 522.097656 385.765625 C 519.230469 387.679688 516.320312 389.523438 513.363281 391.296875 C 510.40625 393.070312 507.40625 394.765625 504.367188 396.390625 C 501.324219 398.015625 498.246094 399.566406 495.128906 401.039062 C 492.015625 402.515625 488.863281 403.910156 485.679688 405.230469 C 482.492188 406.550781 479.277344 407.789062 476.03125 408.953125 C 472.785156 410.113281 469.515625 411.195312 466.214844 412.195312 C 462.917969 413.195312 459.59375 414.113281 456.25 414.953125 C 452.90625 415.789062 449.542969 416.546875 446.164062 417.21875 C 442.78125 417.890625 439.386719 418.480469 435.976562 418.984375 C 432.566406 419.492188 429.144531 419.914062 425.714844 420.25 C 422.285156 420.589844 418.847656 420.84375 415.402344 421.011719 C 411.960938 421.179688 408.515625 421.265625 405.066406 421.265625 C 401.621094 421.265625 398.175781 421.179688 394.730469 421.011719 C 391.289062 420.84375 387.851562 420.589844 384.421875 420.25 C 380.988281 419.914062 377.570312 419.492188 374.160156 418.984375 C 370.75 418.480469 367.355469 417.890625 363.972656 417.21875 C 360.589844 416.546875 357.230469 415.789062 353.886719 414.953125 C 350.539062 414.113281 347.21875 413.195312 343.921875 412.195312 C 340.621094 411.195312 337.347656 410.113281 334.101562 408.953125 C 330.855469 407.789062 327.640625 406.550781 324.457031 405.230469 C 321.273438 403.910156 318.121094 402.515625 315.003906 401.039062 C 311.886719 399.566406 308.808594 398.015625 305.769531 396.390625 C 302.730469 394.765625 299.730469 393.070312 296.773438 391.296875 C 293.816406 389.523438 290.90625 387.679688 288.039062 385.765625 C 285.171875 383.851562 282.355469 381.863281 279.585938 379.8125 C 276.816406 377.757812 274.101562 375.636719 271.433594 373.449219 C 268.769531 371.265625 266.160156 369.011719 263.605469 366.699219 C 261.050781 364.382812 258.554688 362.007812 256.117188 359.566406 C 253.679688 357.128906 251.304688 354.632812 248.988281 352.082031 C 246.675781 349.527344 244.421875 346.917969 242.234375 344.25 C 240.050781 341.585938 237.929688 338.871094 235.875 336.101562 C 233.820312 333.332031 231.835938 330.515625 229.921875 327.648438 C 228.007812 324.78125 226.164062 321.871094 224.390625 318.914062 C 222.617188 315.957031 220.917969 312.957031 219.292969 309.917969 C 217.667969 306.875 216.121094 303.796875 214.644531 300.683594 C 213.171875 297.566406 211.773438 294.414062 210.457031 291.230469 C 209.136719 288.042969 207.898438 284.828125 206.734375 281.582031 C 205.574219 278.335938 204.492188 275.066406 203.492188 271.765625 C 202.492188 268.46875 201.570312 265.144531 200.734375 261.800781 C 199.898438 258.457031 199.140625 255.09375 198.46875 251.714844 C 197.796875 248.332031 197.207031 244.9375 196.703125 241.527344 C 196.195312 238.117188 195.773438 234.695312 195.4375 231.265625 C 195.097656 227.835938 194.84375 224.398438 194.675781 220.953125 C 194.507812 217.511719 194.421875 214.066406 194.421875 210.617188 C 194.421875 207.171875 194.507812 203.726562 194.675781 200.28125 C 194.84375 196.839844 195.097656 193.402344 195.4375 189.972656 C 195.773438 186.542969 196.195312 183.121094 196.703125 179.710938 C 197.207031 176.300781 197.796875 172.90625 198.46875 169.523438 C 199.140625 166.144531 199.898438 162.78125 200.734375 159.4375 C 201.570312 156.09375 202.492188 152.769531 203.492188 149.472656 C 204.492188 146.171875 205.574219 142.898438 206.734375 139.65625 C 207.898438 136.410156 209.136719 133.191406 210.457031 130.007812 C 211.773438 126.824219 213.171875 123.671875 214.644531 120.554688 C 216.121094 117.441406 217.667969 114.363281 219.292969 111.320312 C 220.917969 108.28125 222.617188 105.28125 224.390625 102.324219 C 226.164062 99.367188 228.007812 96.457031 229.921875 93.589844 C 231.835938 90.722656 233.820312 87.90625 235.875 85.136719 C 237.929688 82.367188 240.050781 79.652344 242.234375 76.988281 C 244.421875 74.320312 246.675781 71.710938 248.988281 69.15625 C 251.304688 66.601562 253.679688 64.105469 256.117188 61.667969 C 258.554688 59.230469 261.050781 56.855469 263.605469 54.539062 C 266.160156 52.226562 268.769531 49.972656 271.433594 47.789062 C 274.101562 45.601562 276.816406 43.480469 279.585938 41.425781 C 282.355469 39.371094 285.171875 37.386719 288.039062 35.472656 C 290.90625 33.558594 293.816406 31.714844 296.773438 29.941406 C 299.730469 28.167969 302.730469 26.472656 305.769531 24.84375 C 308.808594 23.21875 311.886719 21.671875 315.003906 20.195312 C 318.121094 18.722656 321.273438 17.328125 324.457031 16.007812 C 327.640625 14.6875 330.855469 13.449219 334.101562 12.285156 C 337.347656 11.125 340.621094 10.042969 343.921875 9.042969 C 347.21875 8.042969 350.539062 7.125 353.886719 6.285156 C 357.230469 5.449219 360.589844 4.691406 363.972656 4.019531 C 367.355469 3.347656 370.75 2.757812 374.160156 2.253906 C 377.570312 1.746094 380.988281 1.324219 384.421875 0.988281 C 387.851562 0.648438 391.289062 0.394531 394.730469 0.226562 C 398.175781 0.0585938 401.621094 -0.0273438 405.066406 -0.0273438 C 408.515625 -0.0273438 411.960938 0.0585938 415.402344 0.226562 C 418.847656 0.394531 422.285156 0.648438 425.714844 0.988281 C 429.144531 1.324219 432.566406 1.746094 435.976562 2.253906 C 439.386719 2.757812 442.78125 3.347656 446.164062 4.019531 C 449.542969 4.691406 452.90625 5.449219 456.25 6.285156 C 459.59375 7.125 462.917969 8.042969 466.214844 9.042969 C 469.515625 10.042969 472.785156 11.125 476.03125 12.285156 C 479.277344 13.449219 482.492188 14.6875 485.679688 16.007812 C 488.863281 17.328125 492.015625 18.722656 495.128906 20.195312 C 498.246094 21.671875 501.324219 23.21875 504.367188 24.84375 C 507.40625 26.472656 510.40625 28.167969 513.363281 29.941406 C 516.320312 31.714844 519.230469 33.558594 522.097656 35.472656 C 524.964844 37.386719 527.78125 39.371094 530.550781 41.425781 C 533.320312 43.480469 536.035156 45.601562 538.699219 47.789062 C 541.367188 49.972656 543.976562 52.226562 546.527344 54.539062 C 549.082031 56.855469 551.578125 59.230469 554.015625 61.667969 C 556.453125 64.105469 558.832031 66.601562 561.144531 69.15625 C 563.460938 71.710938 565.710938 74.320312 567.898438 76.988281 C 570.085938 79.652344 572.207031 82.367188 574.261719 85.136719 C 576.3125 87.90625 578.296875 90.722656 580.214844 93.589844 C 582.128906 96.457031 583.972656 99.367188 585.746094 102.324219 C 587.515625 105.28125 589.214844 108.28125 590.839844 111.320312 C 592.464844 114.363281 594.015625 117.441406 595.488281 120.554688 C 596.964844 123.671875 598.359375 126.824219 599.679688 130.007812 C 601 133.191406 602.238281 136.410156 603.402344 139.65625 C 604.5625 142.898438 605.644531 146.171875 606.644531 149.472656 C 607.644531 152.769531 608.5625 156.09375 609.402344 159.4375 C 610.238281 162.78125 610.992188 166.144531 611.667969 169.523438 C 612.339844 172.90625 612.929688 176.300781 613.433594 179.710938 C 613.941406 183.121094 614.363281 186.542969 614.699219 189.972656 C 615.039062 193.402344 615.292969 196.839844 615.460938 200.28125 C 615.628906 203.726562 615.714844 207.171875 615.714844 210.617188 Z M 615.714844 210.617188 " fill-opacity="1" fill-rule="nonzero"/><path fill="#ffffff" d="M 405.066406 435.851562 C 400.957031 435.851562 396.851562 435.921875 392.742188 436.054688 C 388.636719 436.191406 384.53125 436.394531 380.429688 436.667969 C 376.328125 436.9375 372.234375 437.277344 368.144531 437.683594 C 364.054688 438.089844 359.972656 438.5625 355.898438 439.101562 C 351.824219 439.644531 347.761719 440.253906 343.707031 440.925781 C 339.652344 441.601562 335.613281 442.34375 331.582031 443.152344 C 327.554688 443.960938 323.539062 444.835938 319.539062 445.777344 C 315.539062 446.71875 311.554688 447.722656 307.585938 448.796875 C 303.617188 449.867188 299.671875 451.007812 295.742188 452.210938 C 291.8125 453.414062 287.902344 454.679688 284.015625 456.011719 C 280.125 457.34375 276.261719 458.738281 272.417969 460.199219 C 268.578125 461.65625 264.761719 463.179688 260.96875 464.765625 C 257.175781 466.347656 253.414062 467.996094 249.675781 469.707031 C 245.9375 471.414062 242.230469 473.1875 238.550781 475.019531 C 234.871094 476.851562 231.226562 478.742188 227.609375 480.695312 C 223.992188 482.644531 220.410156 484.65625 216.859375 486.726562 C 213.308594 488.796875 209.792969 490.925781 206.3125 493.113281 C 202.835938 495.300781 199.390625 497.542969 195.984375 499.84375 C 192.578125 502.144531 189.210938 504.5 185.886719 506.910156 C 182.558594 509.320312 179.269531 511.785156 176.023438 514.304688 C 172.777344 516.828125 169.570312 519.398438 166.410156 522.023438 C 163.25 524.648438 160.128906 527.328125 157.058594 530.054688 C 153.984375 532.78125 150.957031 535.5625 147.976562 538.390625 C 144.992188 541.21875 142.058594 544.09375 139.171875 547.019531 C 136.285156 549.945312 133.449219 552.917969 130.660156 555.933594 C 127.871094 558.953125 125.132812 562.019531 122.445312 565.125 C 119.757812 568.234375 117.121094 571.386719 114.539062 574.585938 C 111.953125 577.78125 109.421875 581.019531 106.945312 584.296875 C 104.46875 587.578125 102.046875 590.898438 99.679688 594.257812 C 97.3125 597.617188 95.003906 601.011719 92.746094 604.449219 C 90.492188 607.886719 88.292969 611.355469 86.15625 614.863281 C 84.015625 618.375 81.933594 621.914062 79.910156 625.492188 C 78.589844 627.828125 77.347656 630.207031 76.1875 632.625 C 75.023438 635.039062 73.9375 637.492188 72.933594 639.980469 C 71.929688 642.46875 71.011719 644.988281 70.171875 647.535156 C 69.332031 650.082031 68.574219 652.65625 67.902344 655.253906 C 67.230469 657.851562 66.644531 660.464844 66.144531 663.101562 C 65.640625 665.738281 65.226562 668.386719 64.898438 671.046875 C 64.570312 673.710938 64.328125 676.382812 64.171875 679.058594 C 64.019531 681.738281 63.953125 684.417969 63.972656 687.101562 C 63.992188 689.785156 64.097656 692.460938 64.292969 695.136719 C 64.488281 697.8125 64.769531 700.480469 65.136719 703.136719 C 65.507812 705.796875 65.960938 708.4375 66.503906 711.066406 C 67.042969 713.691406 67.667969 716.300781 68.378906 718.886719 C 69.089844 721.472656 69.882812 724.035156 70.761719 726.570312 C 71.640625 729.105469 72.597656 731.609375 73.636719 734.082031 C 74.679688 736.554688 75.800781 738.988281 77 741.390625 C 78.199219 743.789062 79.476562 746.148438 80.828125 748.464844 C 82.179688 750.78125 83.609375 753.050781 85.109375 755.273438 C 86.609375 757.496094 88.183594 759.667969 89.824219 761.789062 C 91.46875 763.910156 93.175781 765.976562 94.953125 767.984375 C 96.730469 769.996094 98.574219 771.945312 100.476562 773.835938 C 102.382812 775.722656 104.34375 777.550781 106.367188 779.3125 C 108.390625 781.074219 110.46875 782.765625 112.605469 784.390625 C 114.738281 786.019531 116.921875 787.574219 119.15625 789.058594 C 121.390625 790.539062 123.671875 791.949219 126 793.285156 C 128.328125 794.621094 130.695312 795.878906 133.105469 797.058594 C 135.511719 798.238281 137.957031 799.339844 140.4375 800.363281 C 142.917969 801.382812 145.429688 802.324219 147.972656 803.179688 C 150.515625 804.039062 153.082031 804.8125 155.671875 805.503906 C 158.265625 806.195312 160.878906 806.800781 163.507812 807.320312 C 166.140625 807.839844 168.789062 808.273438 171.445312 808.621094 C 174.105469 808.96875 176.777344 809.230469 179.453125 809.402344 C 182.128906 809.578125 184.808594 809.664062 187.492188 809.664062 L 622.714844 809.664062 C 625.398438 809.664062 628.078125 809.578125 630.757812 809.40625 C 633.433594 809.234375 636.101562 808.972656 638.761719 808.625 C 641.425781 808.28125 644.070312 807.847656 646.703125 807.328125 C 649.335938 806.808594 651.945312 806.203125 654.539062 805.511719 C 657.132812 804.824219 659.699219 804.050781 662.242188 803.191406 C 664.785156 802.335938 667.296875 801.394531 669.777344 800.375 C 672.257812 799.355469 674.703125 798.253906 677.113281 797.074219 C 679.523438 795.890625 681.890625 794.632812 684.21875 793.300781 C 686.542969 791.964844 688.824219 790.554688 691.0625 789.070312 C 693.296875 787.585938 695.480469 786.03125 697.613281 784.40625 C 699.75 782.777344 701.828125 781.085938 703.851562 779.324219 C 705.875 777.5625 707.839844 775.734375 709.742188 773.84375 C 711.648438 771.957031 713.488281 770.003906 715.265625 767.996094 C 717.042969 765.984375 718.75 763.917969 720.394531 761.796875 C 722.035156 759.675781 723.609375 757.503906 725.109375 755.28125 C 726.609375 753.054688 728.035156 750.785156 729.386719 748.46875 C 730.742188 746.152344 732.015625 743.792969 733.214844 741.390625 C 734.414062 738.992188 735.535156 736.554688 736.574219 734.082031 C 737.613281 731.609375 738.570312 729.105469 739.449219 726.570312 C 740.324219 724.03125 741.117188 721.472656 741.828125 718.882812 C 742.535156 716.296875 743.160156 713.6875 743.699219 711.058594 C 744.238281 708.433594 744.691406 705.789062 745.058594 703.132812 C 745.425781 700.472656 745.707031 697.808594 745.898438 695.132812 C 746.09375 692.453125 746.199219 689.777344 746.21875 687.09375 C 746.234375 684.410156 746.167969 681.730469 746.007812 679.050781 C 745.851562 676.371094 745.609375 673.703125 745.277344 671.039062 C 744.949219 668.375 744.53125 665.726562 744.027344 663.09375 C 743.523438 660.457031 742.933594 657.839844 742.261719 655.246094 C 741.585938 652.648438 740.828125 650.074219 739.988281 647.527344 C 739.144531 644.980469 738.222656 642.464844 737.214844 639.976562 C 736.210938 637.488281 735.125 635.035156 733.957031 632.621094 C 732.792969 630.203125 731.546875 627.828125 730.226562 625.492188 C 728.203125 621.914062 726.121094 618.371094 723.984375 614.863281 C 721.84375 611.355469 719.644531 607.882812 717.390625 604.449219 C 715.136719 601.011719 712.824219 597.613281 710.457031 594.253906 C 708.089844 590.894531 705.667969 587.574219 703.191406 584.292969 C 700.714844 581.015625 698.1875 577.777344 695.601562 574.578125 C 693.019531 571.382812 690.382812 568.230469 687.695312 565.121094 C 685.007812 562.011719 682.269531 558.949219 679.484375 555.929688 C 676.695312 552.910156 673.855469 549.9375 670.96875 547.011719 C 668.082031 544.085938 665.148438 541.210938 662.167969 538.382812 C 659.183594 535.554688 656.15625 532.773438 653.085938 530.046875 C 650.011719 527.320312 646.894531 524.640625 643.730469 522.015625 C 640.570312 519.390625 637.367188 516.816406 634.121094 514.296875 C 630.871094 511.777344 627.585938 509.3125 624.257812 506.902344 C 620.929688 504.488281 617.5625 502.132812 614.15625 499.832031 C 610.75 497.535156 607.308594 495.289062 603.828125 493.105469 C 600.347656 490.917969 596.832031 488.789062 593.28125 486.71875 C 589.734375 484.648438 586.148438 482.636719 582.53125 480.683594 C 578.917969 478.730469 575.269531 476.839844 571.589844 475.007812 C 567.910156 473.175781 564.203125 471.40625 560.464844 469.695312 C 556.726562 467.988281 552.964844 466.339844 549.171875 464.753906 C 545.378906 463.167969 541.5625 461.648438 537.722656 460.1875 C 533.878906 458.730469 530.015625 457.332031 526.125 456 C 522.238281 454.671875 518.328125 453.402344 514.398438 452.199219 C 510.46875 451 506.519531 449.859375 502.554688 448.789062 C 498.585938 447.714844 494.601562 446.710938 490.601562 445.769531 C 486.601562 444.828125 482.585938 443.953125 478.554688 443.144531 C 474.527344 442.335938 470.484375 441.597656 466.429688 440.921875 C 462.375 440.246094 458.3125 439.640625 454.238281 439.097656 C 450.164062 438.558594 446.082031 438.085938 441.992188 437.679688 C 437.902344 437.273438 433.808594 436.933594 429.707031 436.664062 C 425.605469 436.394531 421.5 436.191406 417.394531 436.054688 C 413.285156 435.921875 409.175781 435.851562 405.066406 435.851562 Z M 405.066406 435.851562 " fill-opacity="1" fill-rule="nonzero"/></svg>